# Blender v2.93.6 OBJ File: ''
# www.blender.org
mtllib yazirusi.mtl
o Cube
v 0.349357 0.430907 0.379187
v 0.349357 -0.430907 0.379187
v -0.349357 0.430907 0.379187
v -0.349357 -0.430907 0.379187
v -0.569656 -0.569656 4.191734
v -0.569656 0.569656 4.191734
v 0.569656 0.569656 4.191734
v 0.569656 -0.569656 4.191734
v -0.203335 -0.203335 5.549582
v -0.203335 0.203335 5.549582
v 0.203335 0.203335 5.549582
v 0.203335 -0.203335 5.549582
v -1.000000 -1.000000 4.165258
v -1.000000 1.000000 4.165258
v 1.000000 1.000000 4.165258
v 1.000000 -1.000000 4.165258
vt 0.625000 0.000000
vt 0.375000 0.000000
vt 0.375000 0.000000
vt 0.625000 0.000000
vt 0.125000 0.750000
vt 0.875000 0.750000
vt 0.625000 0.750000
vt 0.375000 0.750000
vt 0.625000 0.750000
vt 0.875000 0.750000
vt 0.875000 0.750000
vt 0.625000 0.750000
vt 0.375000 0.750000
vt 0.125000 0.750000
vt 0.474583 0.849583
vt 0.525417 0.849583
vt 0.525417 0.900417
vt 0.474583 0.900417
vt 0.375000 0.000000
vt 0.625000 0.000000
vt 0.375000 0.750000
vt 0.125000 0.750000
vt 0.625000 1.000000
vt 0.375000 1.000000
vn -0.9983 0.0000 -0.0577
vn 0.0000 0.0000 -1.0000
vn 0.0000 -0.0614 -0.9981
vn 0.0000 -0.9993 -0.0364
vn 0.0000 0.9993 -0.0364
vn 0.9983 0.0000 -0.0577
vn 0.0000 0.0000 1.0000
vn 0.0614 0.0000 -0.9981
vn 0.0000 0.0614 -0.9981
vn -0.0614 0.0000 -0.9981
vn -0.8667 0.0000 0.4988
vn 0.8667 0.0000 0.4988
vn 0.0000 0.8667 0.4988
vn 0.0000 -0.8667 0.4988
usemtl Material
s off
f 3/1/1 4/2/1 5/3/1 6/4/1
f 4/5/2 3/6/2 1/7/2 2/8/2
f 7/9/3 6/10/3 14/11/3 15/12/3
f 4/5/4 2/8/4 8/13/4 5/14/4
f 1/7/5 3/6/5 6/10/5 7/9/5
f 2/8/6 1/7/6 7/9/6 8/13/6
f 12/15/7 11/16/7 10/17/7 9/18/7
f 6/4/8 5/3/8 13/19/8 14/20/8
f 5/14/9 8/13/9 16/21/9 13/22/9
f 8/13/10 7/9/10 15/12/10 16/21/10
f 9/18/11 10/17/11 14/23/11 13/24/11
f 11/16/12 12/15/12 16/21/12 15/12/12
f 10/17/13 11/16/13 15/12/13 14/23/13
f 12/15/14 9/18/14 13/24/14 16/21/14
